<?xml version="1.0" standalone="no"?>
<!DOCTYPE svg PUBLIC "-//W3C//DTD SVG 20010904//EN"
 "http://www.w3.org/TR/2001/REC-SVG-20010904/DTD/svg10.dtd">
<svg version="1.0" xmlns="http://www.w3.org/2000/svg"
 width="299.000000pt" height="299.000000pt" viewBox="0 0 299.000000 299.000000"
 preserveAspectRatio="xMidYMid meet">
<metadata>
Created by potrace 1.11, written by Peter Selinger 2001-2013
</metadata>
<g transform="translate(0.000000,299.000000) scale(0.100000,-0.100000)"
fill="#000000" stroke="none">
<path d="M884 2971 c-75 -27 -112 -48 -161 -94 -56 -52 -73 -84 -73 -141 0
-86 61 -199 157 -289 20 -20 35 -37 33 -39 -5 -4 -178 -60 -195 -64 -11 -2
-350 -103 -428 -127 -26 -9 -51 -16 -55 -16 -37 -6 -37 -5 -37 -221 0 -133 4
-213 10 -218 7 -5 10 -180 10 -521 0 -475 1 -514 17 -519 9 -2 19 -11 23 -20
5 -13 4 -14 -6 -5 -8 8 -18 9 -31 2 -10 -5 -18 -6 -18 -2 0 4 -7 0 -15 -11 -8
-11 -19 -15 -27 -10 -7 4 -10 4 -6 -1 4 -4 2 -15 -4 -24 -7 -9 -9 -13 -4 -9 5
4 18 3 29 -3 14 -8 18 -8 13 0 -12 19 5 12 26 -11 11 -13 17 -18 14 -11 -4 7
1 11 13 10 12 -1 17 -6 13 -17 -4 -12 -2 -13 8 -3 11 10 16 9 27 -5 8 -9 12
-11 8 -5 -4 9 -1 11 9 7 9 -3 13 -10 10 -15 -3 -5 0 -9 5 -9 6 0 11 5 11 10 0
6 6 5 14 -2 10 -9 11 -15 2 -20 -8 -6 -8 -8 1 -8 6 0 15 5 18 11 5 6 12 4 22
-8 8 -10 12 -12 8 -6 -4 9 -1 11 9 7 9 -3 13 -11 9 -18 -3 -6 -3 -8 2 -4 4 4
14 3 22 -3 7 -6 13 -8 13 -3 0 5 5 2 10 -6 8 -13 10 -13 10 -1 0 11 4 10 14
-4 13 -18 35 -27 69 -26 9 0 17 -4 17 -10 0 -5 6 -9 14 -9 8 0 16 -3 19 -7 2
-5 2 -1 0 7 -3 9 4 6 17 -8 21 -22 30 -22 61 5 13 11 16 11 16 -2 0 -8 -4 -12
-8 -10 -3 3 -12 -1 -18 -9 -9 -10 -8 -15 4 -20 11 -4 14 -2 9 6 -5 8 -2 9 10
5 10 -4 20 -7 22 -7 3 0 2 -5 -2 -12 -5 -8 -2 -9 9 -5 9 3 23 -1 32 -9 8 -9
15 -12 15 -7 0 4 5 1 10 -7 8 -12 10 -12 10 -1 0 8 8 4 21 -10 11 -13 18 -19
15 -14 -2 6 4 17 15 23 19 12 19 11 8 -9 -10 -19 -9 -21 5 -16 9 4 16 2 16 -4
0 -6 4 -8 9 -4 5 3 17 -2 25 -11 9 -8 16 -11 16 -5 0 6 5 11 11 11 5 0 7 -5 3
-11 -5 -8 1 -10 20 -7 23 5 24 3 14 -10 -10 -13 -10 -14 0 -8 7 4 12 2 12 -5
0 -7 7 -4 15 7 8 10 15 15 14 9 -3 -25 2 -34 18 -28 11 4 14 3 9 -6 -4 -6 -4
-11 1 -10 4 1 22 -4 38 -11 17 -7 43 -14 60 -15 16 -2 31 -8 33 -14 2 -6 12
-11 23 -11 10 0 19 -4 19 -10 0 -5 5 -10 11 -10 5 0 8 4 4 9 -3 5 0 13 6 17 8
4 9 3 5 -5 -4 -6 0 -14 8 -17 9 -3 13 -11 10 -16 -5 -7 -1 -7 11 0 15 8 23 5
38 -12 10 -11 16 -15 12 -8 -9 17 3 15 22 -4 9 -8 22 -13 29 -10 8 3 14 1 14
-4 0 -6 9 -10 21 -10 11 0 18 -4 14 -9 -3 -5 0 -13 6 -17 8 -4 9 -3 5 4 -4 7
-1 12 9 12 9 0 13 -5 9 -11 -4 -7 -1 -10 7 -7 8 3 13 11 11 17 -1 7 2 10 7 6
6 -3 7 -13 4 -23 -6 -15 -4 -15 22 2 l30 19 -20 -23 c-11 -13 -15 -20 -8 -17
6 4 14 1 16 -5 4 -10 6 -10 6 0 1 6 6 12 12 12 5 0 7 -4 4 -10 -3 -5 3 -10 15
-10 11 0 30 -9 42 -20 12 -11 35 -20 50 -20 16 0 27 -4 24 -8 -2 -4 7 -9 22
-10 14 -1 29 -8 34 -15 6 -9 8 -9 8 1 0 8 5 10 13 6 8 -5 7 -2 -2 9 -12 15
-12 17 4 11 14 -6 16 -4 10 7 -8 12 -6 12 9 0 15 -12 17 -12 14 0 -2 8 3 13
11 11 12 -3 12 -1 1 15 -8 10 -10 15 -6 11 5 -4 16 -2 24 5 13 10 14 9 8 -2
-6 -9 -5 -12 5 -9 8 3 13 10 12 16 -1 5 9 13 22 16 14 4 25 11 25 17 0 6 6 7
13 3 9 -6 9 -5 -1 8 -10 13 -9 15 13 13 14 -2 23 0 21 4 -3 4 -1 13 5 21 6 10
9 11 9 3 0 -7 4 -13 10 -13 5 0 7 7 4 15 -5 11 -2 13 12 8 13 -5 15 -3 9 7 -6
10 -4 12 10 6 15 -5 16 -4 6 8 -11 13 -9 15 9 11 15 -3 20 0 17 9 -4 10 0 12
14 9 11 -3 21 1 25 11 3 9 12 16 20 16 8 0 14 5 14 11 0 5 5 7 10 4 6 -3 10 1
10 9 0 10 7 13 21 11 18 -4 19 -2 7 12 -7 10 -8 14 -1 10 20 -13 44 4 38 27
-2 11 -2 16 1 9 3 -7 12 -9 20 -6 12 4 12 8 2 22 -10 13 -10 14 2 4 8 -7 21
-13 30 -13 13 0 13 1 0 10 -13 8 -12 10 5 11 11 1 23 1 28 0 4 0 6 4 5 11 -2
7 3 13 10 14 6 1 17 2 22 3 6 0 10 8 10 17 0 8 5 12 10 9 6 -3 10 -1 10 5 0 6
4 9 9 5 5 -3 12 -1 16 5 4 6 11 7 17 4 7 -4 8 -2 4 5 -6 9 -11 9 -21 1 -9 -8
-15 -8 -20 0 -4 6 -3 9 2 8 4 -1 19 4 32 11 16 9 21 9 16 1 -5 -8 -1 -7 14 1
14 9 17 16 9 20 -7 4 -16 5 -20 3 -4 -3 -8 0 -8 5 0 13 2 13 34 1 21 -8 26 -7
26 6 0 10 6 14 14 11 10 -4 13 -1 9 9 -4 11 0 15 13 12 15 -2 18 2 17 22 -2
22 -1 23 8 7 6 -9 15 -15 20 -12 5 4 6 11 3 17 -5 8 -1 9 10 5 11 -5 15 -3 10
5 -5 8 -2 9 11 4 14 -5 16 -4 7 7 -10 11 -6 13 18 12 16 -1 27 2 25 5 -3 4 2
13 9 20 8 6 13 20 11 31 -2 11 0 17 6 14 5 -4 7 -10 4 -15 -3 -5 -1 -11 5 -15
5 -3 10 1 10 9 0 10 9 16 21 16 17 0 19 3 11 13 -9 10 -5 13 18 11 17 -1 27 2
24 7 -3 5 -11 6 -17 3 -7 -4 -8 -3 -4 2 5 5 14 9 20 9 7 1 11 7 9 15 -2 11 0
11 11 1 12 -9 16 -8 21 4 3 8 12 15 19 15 8 0 20 7 27 15 7 8 17 12 23 8 6 -4
7 -1 1 8 -11 18 -13 60 -3 53 4 -2 6 -14 4 -25 -3 -15 0 -19 11 -15 9 3 18 6
20 6 2 0 4 8 5 18 0 10 3 12 6 4 2 -6 9 -9 14 -6 6 3 5 12 -3 21 -11 14 -10
15 8 9 15 -4 24 -2 27 9 4 9 13 12 24 8 16 -6 16 -4 5 9 -11 14 -10 16 9 11
20 -6 21 -5 8 9 -7 9 -16 14 -18 13 -1 -2 -14 0 -27 5 -18 7 -26 5 -33 -8 -6
-9 -11 -12 -11 -6 0 16 25 35 36 26 4 -4 4 0 -2 8 -6 10 -9 173 -8 450 2 522
1 490 17 490 12 0 14 22 16 250 0 52 1 109 1 127 1 36 0 37 -118 54 -69 11
-82 15 -76 28 35 82 46 175 28 247 -12 51 -52 122 -90 158 -82 79 -228 109
-333 67 -98 -39 -215 -130 -394 -303 -52 -52 -62 -54 -148 -38 -30 6 -69 13
-86 15 -18 2 -48 7 -65 10 -18 3 -46 7 -63 10 -41 7 -117 17 -132 18 -6 0 -19
21 -29 46 -9 25 -36 85 -59 133 -111 227 -250 309 -421 249z m205 -347 c43
-53 81 -115 76 -124 -14 -23 -79 61 -108 140 l-17 45 20 -25 c11 -14 24 -30
29 -36z m1325 -85 c-2 -43 -13 -96 -26 -123 -9 -22 -17 -26 -37 -22 -45 9
-204 35 -243 40 -83 10 -85 15 -22 53 107 65 225 97 299 83 24 -5 30 -11 29
-31z m390 -1627 c3 -5 -1 -9 -9 -9 -8 0 -12 4 -9 9 3 4 7 8 9 8 2 0 6 -4 9 -8z
m-69 -62 c3 -6 -1 -7 -9 -4 -18 7 -21 14 -7 14 6 0 13 -4 16 -10z m-4 -53
c-10 -9 -11 -8 -5 6 3 10 9 15 12 12 3 -3 0 -11 -7 -18z m-21 -1 c0 -2 -7 -7
-16 -10 -8 -3 -12 -2 -9 4 6 10 25 14 25 6z m-160 -69 c0 -2 -10 -12 -22 -23
l-23 -19 19 23 c18 21 26 27 26 19z m-40 -13 c0 -8 -19 -13 -24 -6 -3 5 1 9 9
9 8 0 15 -2 15 -3z m-2375 -33 c3 -5 2 -12 -3 -15 -5 -3 -9 1 -9 9 0 17 3 19
12 6z m2312 -4 c0 -8 -6 -14 -14 -14 -9 0 -10 4 -2 14 6 7 12 13 14 13 1 0 2
-6 2 -13z m-2251 -25 c-17 -16 -18 -16 -5 5 7 12 15 20 18 17 3 -2 -3 -12 -13
-22z m2335 5 c-10 -9 -11 -8 -5 6 3 10 9 15 12 12 3 -3 0 -11 -7 -18z m-23
-12 c-3 -3 -9 2 -12 12 -6 14 -5 15 5 6 7 -7 10 -15 7 -18z m-2158 1 c0 -2 -8
-10 -17 -17 -16 -13 -17 -12 -4 4 13 16 21 21 21 13z m2120 -10 c0 -2 -7 -7
-16 -10 -8 -3 -12 -2 -9 4 6 10 25 14 25 6z m-2016 -24 c3 -5 -1 -9 -9 -9 -8
0 -12 4 -9 9 3 4 7 8 9 8 2 0 6 -4 9 -8z m-60 -22 c-8 -7 -64 -8 -68 -1 -3 4
13 6 34 6 21 0 36 -2 34 -5z m107 -7 c13 -16 12 -17 -3 -4 -17 13 -22 21 -14
21 2 0 10 -8 17 -17z m-55 -28 c1 -8 -2 -15 -6 -15 -5 0 -8 9 -7 20 1 21 10
18 13 -5z m101 5 c1 -11 -2 -20 -7 -20 -6 0 -7 17 -1 38 3 8 7 -1 8 -18z
m1821 1 c-7 -9 -13 -18 -15 -20 -1 -2 -1 5 0 16 0 11 7 20 14 20 10 0 10 -4 1
-16z m-1978 -5 c0 -3 -4 -8 -10 -11 -5 -3 -10 -1 -10 4 0 6 5 11 10 11 6 0 10
-2 10 -4z m105 -6 c-3 -5 -12 -10 -18 -10 -7 0 -6 4 3 10 19 12 23 12 15 0z
m1769 -6 c3 -8 2 -12 -4 -9 -6 3 -10 10 -10 16 0 14 7 11 14 -7z m-1814 -20
c0 -8 -19 -13 -24 -6 -3 5 1 9 9 9 8 0 15 -2 15 -3z m1760 2 c0 -2 -8 -10 -17
-17 -16 -13 -17 -12 -4 4 13 16 21 21 21 13z m-1656 -18 c-4 -5 -9 -7 -12 -4
-3 3 -12 0 -21 -7 -14 -10 -14 -10 -4 4 13 16 46 23 37 7z m41 2 c3 -6 -1 -7
-9 -4 -18 7 -21 14 -7 14 6 0 13 -4 16 -10z m1655 -5 c0 -2 -9 -3 -19 -2 -11
0 -18 5 -15 9 4 6 34 0 34 -7z m40 9 c0 -8 -19 -13 -24 -6 -3 5 1 9 9 9 8 0
15 -2 15 -3z m-1596 -22 c3 -5 -1 -9 -9 -9 -8 0 -15 4 -15 9 0 4 4 8 9 8 6 0
12 -4 15 -8z m1473 1 c-4 -3 -1 -13 6 -22 11 -14 10 -14 -5 -2 -16 12 -16 31
-1 31 4 0 3 -3 0 -7z m54 -56 c-10 -9 -11 -8 -5 6 3 10 9 15 12 12 3 -3 0 -11
-7 -18z m-38 -2 c-3 -9 -8 -14 -10 -11 -3 3 -2 9 2 15 9 16 15 13 8 -4z
m-1473 -5 c0 -5 -2 -10 -4 -10 -3 0 -8 5 -11 10 -3 6 -1 10 4 10 6 0 11 -4 11
-10z m136 -2 c4 -7 4 -10 -1 -6 -4 4 -15 2 -24 -5 -14 -11 -14 -10 -2 6 16 20
18 21 27 5z m124 -12 c0 -3 -4 -8 -10 -11 -5 -3 -10 -1 -10 4 0 6 5 11 10 11
6 0 10 -2 10 -4z m-120 -27 c0 -4 -9 -7 -19 -6 -11 0 -18 4 -16 7 6 9 35 8 35
-1z m80 1 c0 -5 -2 -10 -4 -10 -3 0 -8 5 -11 10 -3 6 -1 10 4 10 6 0 11 -4 11
-10z m95 1 c-9 -8 -36 -10 -30 -2 2 4 11 8 20 8 8 0 13 -3 10 -6z m1060 -1 c3
-5 1 -10 -4 -10 -6 0 -11 5 -11 10 0 6 2 10 4 10 3 0 8 -4 11 -10z m-980 -20
c3 -5 1 -10 -4 -10 -6 0 -11 5 -11 10 0 6 2 10 4 10 3 0 8 -4 11 -10z m-82
-15 c-3 -9 -8 -14 -10 -11 -3 3 -2 9 2 15 9 16 15 13 8 -4z m960 0 c-3 -9 -8
-14 -10 -11 -3 3 -2 9 2 15 9 16 15 13 8 -4z m104 0 c0 -8 -4 -12 -9 -9 -5 3
-6 10 -3 15 9 13 12 11 12 -6z m-1112 -25 c-3 -5 -12 -10 -18 -10 -7 0 -6 4 3
10 19 12 23 12 15 0z m32 -20 c2 -11 -1 -20 -5 -20 -4 0 -8 11 -8 25 0 28 8
24 13 -5z m923 20 c0 -5 -2 -10 -4 -10 -3 0 -8 5 -11 10 -3 6 -1 10 4 10 6 0
11 -4 11 -10z m-685 -19 c-9 -8 -36 -10 -30 -2 2 4 11 8 20 8 8 0 13 -3 10 -6z
m726 -18 c13 -16 12 -17 -3 -4 -17 13 -22 21 -14 21 2 0 10 -8 17 -17z m-923
-6 c14 4 14 3 2 -5 -16 -12 -30 -7 -29 11 0 9 2 9 5 0 3 -7 13 -9 22 -6z m118
-13 c1 -9 0 -13 -4 -10 -3 4 -7 14 -8 22 -1 9 0 13 4 10 3 -4 7 -14 8 -22z
m101 3 c0 -8 -6 -14 -14 -14 -9 0 -10 4 -2 14 6 7 12 13 14 13 1 0 2 -6 2 -13z
m-126 -14 c13 -16 12 -17 -3 -4 -17 13 -22 21 -14 21 2 0 10 -8 17 -17z m698
3 c9 -11 9 -16 -1 -22 -7 -4 -10 -4 -6 1 4 4 3 14 -3 22 -6 7 -9 13 -6 13 2 0
10 -6 16 -14z m-432 -11 c0 -8 -4 -12 -9 -9 -5 3 -6 10 -3 15 9 13 12 11 12
-6z m-193 -3 c2 -4 -4 -8 -14 -8 -10 0 -16 4 -14 8 3 4 9 8 14 8 5 0 11 -4 14
-8z m596 -2 c0 -5 -5 -10 -11 -10 -5 0 -7 5 -4 10 3 6 8 10 11 10 2 0 4 -4 4
-10z m-480 -20 c0 -5 -2 -10 -4 -10 -3 0 -8 5 -11 10 -3 6 -1 10 4 10 6 0 11
-4 11 -10z m40 6 c0 -2 -7 -7 -16 -10 -8 -3 -12 -2 -9 4 6 10 25 14 25 6z
m510 -1 c0 -2 -6 -8 -13 -14 -10 -8 -14 -7 -14 2 0 8 6 14 14 14 7 0 13 -1 13
-2z m-470 -9 c0 -2 -8 -10 -17 -17 -16 -13 -17 -12 -4 4 13 16 21 21 21 13z
m412 -30 c3 3 8 1 12 -4 11 -18 -25 -8 -41 12 -18 21 -18 21 3 3 11 -9 23 -14
26 -11z m-314 -11 c-3 -3 -9 2 -12 12 -6 14 -5 15 5 6 7 -7 10 -15 7 -18z m77
5 c3 -5 1 -10 -4 -10 -6 0 -11 5 -11 10 0 6 2 10 4 10 3 0 8 -4 11 -10z m61
-46 c0 -13 -2 -22 -5 -19 -3 3 -6 17 -7 31 0 13 2 22 5 19 3 -3 6 -17 7 -31z
m44 22 c-7 -7 -13 -7 -20 0 -6 6 -3 10 10 10 13 0 16 -4 10 -10z m-120 -16 c0
-4 -7 -7 -15 -6 -23 3 -26 12 -5 13 11 1 20 -2 20 -7z m40 6 c0 -2 -7 -7 -16
-10 -8 -3 -12 -2 -9 4 6 10 25 14 25 6z m120 -6 c0 -5 -2 -10 -4 -10 -3 0 -8
5 -11 10 -3 6 -1 10 4 10 6 0 11 -4 11 -10z m-149 -47 c13 -16 12 -17 -3 -4
-10 7 -18 15 -18 17 0 8 8 3 21 -13z m-14 -29 c-3 -3 -12 -4 -19 -1 -8 3 -5 6
6 6 11 1 17 -2 13 -5z"/>
</g>
</svg>
